# Blender 3.1.0
# www.blender.org
mtllib Medkit.mtl
o Medkit
v -0.410271 0.880000 1.213974
v 1.936143 0.880000 1.213974
v -0.410271 1.364152 -2.963471
v 3.333604 0.880000 -0.113937
v 1.937606 0.880531 -6.148740
v 3.349184 0.880531 -4.738811
v 3.341394 0.880265 -2.426374
v 1.259969 0.880265 -6.152604
v 1.275048 1.364284 -3.004828
v 3.337478 0.880132 -1.263887
v 0.762936 0.880000 1.213974
v 2.313242 1.364152 -0.194042
v 2.643395 0.880531 -5.443776
v 2.418115 1.364418 -4.185477
v 2.354429 1.364284 -1.962161
v 3.345289 0.880398 -3.582593
v 1.598788 0.880398 -6.150672
v 2.384548 1.364550 -4.936523
v 0.793510 1.364152 -1.480462
v 2.290501 0.880531 -5.796257
v 1.227354 1.364418 -5.273324
v 1.616957 1.364284 -2.587778
v 0.176333 0.880000 1.213974
v 1.793886 1.364550 -5.286210
v -0.410271 1.364152 0.232829
v 2.634874 0.880000 0.550019
v 1.380113 1.364152 0.231249
v 0.484921 1.364152 0.252506
v 3.339436 0.880199 -1.845130
v 1.267509 1.364351 -3.095462
v 2.386272 1.364351 -3.073819
v 1.246747 1.364351 -4.044664
v -0.410271 0.877792 -4.083086
v 1.275048 0.877924 -4.124443
v -0.410271 0.877792 -6.119509
v 1.275048 0.877924 -6.145456
v -0.410271 0.242496 1.213974
v 1.936143 0.242496 1.213974
v 3.333604 0.242496 -0.113937
v 1.937606 0.243027 -6.148740
v 3.349184 0.243027 -4.738811
v 3.341394 0.242761 -2.426374
v 1.259969 0.242761 -6.152604
v 3.337478 0.242628 -1.263887
v 0.762936 0.242496 1.213974
v 2.643395 0.243027 -5.443776
v 3.345289 0.242894 -3.582593
v 1.598788 0.242894 -6.150672
v 2.290501 0.243027 -5.796257
v 0.176333 0.242496 1.213974
v 2.634874 0.242496 0.550019
v 3.339436 0.242695 -1.845130
v -0.410271 0.240288 -6.104100
v 1.275048 0.240420 -6.145456
v -2.708008 0.880000 1.213974
v -4.105468 0.880000 -0.113937
v -2.709471 0.880531 -6.148740
v -4.121048 0.880531 -4.738811
v -4.113259 0.880265 -2.426374
v -2.031833 0.880265 -6.152604
v -2.046912 1.364284 -3.004828
v -4.109343 0.880132 -1.263887
v -1.534801 0.880000 1.213974
v -3.085106 1.364152 -0.194042
v -3.415259 0.880531 -5.443776
v -3.189979 1.364418 -4.185477
v -3.126294 1.364284 -1.962161
v -4.117153 0.880398 -3.582593
v -2.370652 0.880398 -6.150672
v -3.156412 1.364550 -4.936523
v -1.565374 1.364152 -1.480462
v -3.062365 0.880531 -5.796257
v -1.999218 1.364418 -5.273324
v -2.388821 1.364284 -2.587778
v -0.948197 0.880000 1.213974
v -2.565751 1.364550 -5.286210
v -3.406738 0.880000 0.550019
v -2.151978 1.364152 0.231249
v -1.256786 1.364152 0.252506
v -4.111301 0.880199 -1.845130
v -2.039372 1.364351 -3.095462
v -3.158136 1.364351 -3.073819
v -2.018611 1.364351 -4.044664
v -2.046912 0.877924 -4.124443
v -2.046912 0.877924 -6.145456
v -2.708008 0.242496 1.213974
v -4.105468 0.242496 -0.113937
v -2.709471 0.243027 -6.148740
v -4.121048 0.243027 -4.738811
v -4.113259 0.242761 -2.426374
v -2.031833 0.242761 -6.152604
v -4.109343 0.242628 -1.263887
v -1.534801 0.242496 1.213974
v -3.415259 0.243027 -5.443776
v -4.117153 0.242894 -3.582593
v -2.370652 0.242894 -6.150672
v -3.062365 0.243027 -5.796257
v -0.948197 0.242496 1.213974
v -3.406738 0.242496 0.550019
v -4.111301 0.242695 -1.845130
v -2.046912 0.240420 -6.145456
v 3.597757 0.880265 -4.154229
v 3.601651 0.880398 -5.310448
v 3.597757 0.242761 -4.154229
v 3.601651 0.242894 -5.310448
v 3.597147 0.880265 -4.153660
v 3.770577 0.880398 -5.309879
v 3.597147 0.242761 -4.153660
v 3.770577 0.242894 -5.309879
v 3.586700 0.880398 -6.967089
v 3.586700 0.242894 -6.967089
v 3.755625 0.880398 -6.966520
v 3.755625 0.242894 -6.966520
v 2.710569 0.900425 -8.894123
v 2.710569 0.222867 -8.894123
v 2.830953 0.900425 -9.027324
v 2.830953 0.222867 -9.027324
v 1.737146 0.900425 -9.643516
v 1.737146 0.222867 -9.643516
v 1.678518 0.900425 -9.929743
v 1.678518 0.222867 -9.929743
v 0.653893 0.900425 -9.561565
v 0.653893 0.222867 -9.561565
v 0.542062 0.900425 -9.669235
v 0.542062 0.222867 -9.669235
v 0.263338 0.900425 -8.526476
v 0.263338 0.222867 -8.526476
v 0.151507 0.900425 -8.634146
v 0.151507 0.222867 -8.634146
v -0.637449 0.900425 -7.637640
v -0.637449 0.222867 -7.637640
v -0.749279 0.900425 -7.824185
v -0.749279 0.222867 -7.824185
v -2.742218 0.900425 -7.276888
v -2.742218 0.222867 -7.276888
v -2.752452 0.900425 -7.494145
v -2.752452 0.222867 -7.494145
v -3.964406 0.900425 -6.611872
v -3.964406 0.222867 -6.611872
v -4.150925 0.900425 -6.723745
v -4.150925 0.222867 -6.723745
v -4.379894 0.900425 -6.032650
v -4.379894 0.222867 -6.032650
v -4.687581 0.900425 -6.046510
v -4.687581 0.222867 -6.046510
v -4.119202 0.900425 -4.738063
v -4.119202 0.222867 -4.738063
v -4.115151 0.882216 -2.898524
v -4.115151 0.241651 -2.898524
vn 0.3261 0.9674 0.4885
vn 0.5321 0.9785 -0.2006
vn 0.5061 1.0122 0.0102
vn 0.4901 1.0201 0.0077
vn -0.0001 1.1317 0.0001
vn 0.4102 0.8993 -0.5512
vn -0.0000 1.1317 -0.0000
vn -0.0002 1.1317 0.0003
vn 0.5278 1.0011 -0.0081
vn -0.0069 0.9897 -0.5489
vn 0.2591 0.9786 -0.5060
vn -1.1250 -0.1210 0.0207
vn -0.0067 1.0133 0.5040
vn 0.0073 1.0116 0.5073
vn 0.1510 1.0377 0.4258
vn 0.0001 1.1317 0.0001
vn 0.4982 1.0161 0.0100
vn -0.0111 1.0380 -0.4509
vn -0.0001 1.1317 -0.0000
vn -1.1291 -0.0759 0.0119
vn -0.0226 -0.0137 -1.1314
vn 1.1317 -0.0000 0.0038
vn 0.7998 -0.0000 -0.8007
vn -0.0000 -0.0000 1.1317
vn -0.0009 -1.1317 -0.0001
vn 0.0065 -0.0000 -1.1317
vn 0.7796 -0.0000 0.8204
vn -0.3261 0.9674 0.4885
vn -0.5321 0.9785 -0.2006
vn -0.5061 1.0122 0.0102
vn -0.4901 1.0201 0.0077
vn -0.4102 0.8993 -0.5512
vn 0.0002 1.1317 0.0003
vn -0.5278 1.0011 -0.0081
vn 0.0069 0.9897 -0.5489
vn -0.2591 0.9786 -0.5060
vn 1.1250 -0.1210 0.0207
vn 0.0072 1.0133 0.5039
vn -0.0073 1.0116 0.5073
vn -0.1510 1.0377 0.4258
vn -0.4982 1.0161 0.0100
vn 0.0115 1.0380 -0.4509
vn 0.0001 1.1317 -0.0000
vn 1.1291 -0.0759 0.0119
vn 0.0233 -0.0137 -1.1314
vn -1.1317 -0.0000 0.0038
vn -0.7998 -0.0000 -0.8007
vn -0.0065 -0.0000 -1.1317
vn -0.7796 -0.0000 0.8204
vn -1.1317 -0.0000 0.0102
vn 0.0009 1.1317 0.0001
vn 1.1195 -0.0000 0.1661
vn -1.1195 -0.0000 -0.1661
vn 1.1192 -0.0000 0.1679
vn -0.0000 1.1317 0.0001
vn -0.7722 -0.0000 -0.8274
vn -0.0000 -1.1317 -0.0001
vn 0.0043 1.1317 0.0094
vn -0.0000 -1.1317 -0.0000
vn 1.1317 -0.0000 -0.0102
vn -1.0302 -0.0000 0.4684
vn 0.0043 -1.1317 0.0094
vn 1.0325 -0.0000 -0.4633
vn -0.6904 -0.0000 0.8968
vn 0.6977 -0.0000 -0.8910
vn 1.0589 -0.0000 0.3995
vn 0.0854 -0.0000 1.1285
vn -0.2529 -0.0000 -1.1031
vn -1.0589 -0.0000 -0.3995
vn -0.7567 -0.0000 -0.8416
vn 0.7949 -0.0000 0.8056
vn 0.1912 -0.0000 1.1155
vn -0.1840 -0.0000 -1.1167
vn -0.8870 -0.0000 -0.7029
vn -0.5461 -0.0000 -0.9913
vn 0.5409 -0.0000 0.9941
vn -0.0188 1.1315 0.0082
vn 0.9196 -0.0000 0.6597
vn 1.1317 -0.0000 -0.0025
vn 1.1095 -0.0000 -0.2234
vn -0.0194 -1.1315 0.0084
vn -1.1135 -0.0000 0.2025
vn 0.0006 -1.1317 -0.0001
vn -0.0006 -1.1317 -0.0001
vt 0.510836 0.022583
vt 0.293247 0.304835
vt 0.707660 0.022574
vt 0.293248 0.211873
vt 0.495479 0.356087
vt 0.493003 0.372494
vt 0.861860 0.183260
vt 0.293249 0.135498
vt 0.761358 0.630218
vt 0.293325 0.168733
vt 0.862368 0.515881
vt 0.293328 0.089689
vt 0.862091 0.349571
vt 0.293262 0.043881
vt 0.914740 0.577229
vt 0.083901 0.649401
vt 0.705985 0.641096
vt 0.310493 0.119922
vt 0.293336 0.195581
vt 0.690817 0.359806
vt 0.665125 0.375909
vt 0.280718 0.306343
vt 0.861970 0.265964
vt 0.293255 0.089938
vt 0.609248 0.022582
vt 0.293247 0.258354
vt 0.767110 0.188871
vt 0.758769 0.107081
vt 0.810578 0.572232
vt 0.293326 0.129211
vt 0.769767 0.465961
vt 0.774407 0.475965
vt 0.763088 0.266057
vt 0.769948 0.316045
vt 0.862221 0.432726
vt 0.293336 0.043881
vt 0.905105 0.634225
vt 0.090769 0.609966
vt 0.733449 0.634824
vt 0.293330 0.182157
vt 0.766246 0.533490
vt 0.771813 0.529988
vt 0.621718 0.222746
vt 0.785035 0.600643
vt 0.293326 0.148972
vt 0.685816 0.563772
vt 0.682088 0.571834
vt 0.277998 0.172305
vt 0.708072 0.322308
vt 0.560042 0.022583
vt 0.293247 0.281595
vt 0.726626 0.564931
vt 0.728312 0.562330
vt 0.495480 0.068700
vt 0.510836 0.084925
vt 0.769791 0.050589
vt 0.293248 0.173685
vt 0.683235 0.068842
vt 0.661026 0.085022
vt 0.589357 0.066930
vt 0.585931 0.083658
vt 0.862029 0.307767
vt 0.293259 0.066909
vt 0.690027 0.367955
vt 0.280559 0.300971
vt 0.766427 0.366009
vt 0.772179 0.396005
vt 0.279420 0.244890
vt 0.687850 0.453300
vt 0.493005 0.470512
vt 0.665009 0.474021
vt 0.312932 0.239726
vt 0.493004 0.640884
vt 0.352324 0.108743
vt 0.665066 0.643114
vt 0.312932 0.120330
vt 0.352368 0.175522
vt 0.263788 0.304835
vt 0.237788 0.181034
vt 0.263789 0.211873
vt 0.237788 0.222822
vt 0.263790 0.135497
vt 0.265371 0.247709
vt 0.322783 0.168734
vt 0.390724 0.222848
vt 0.322786 0.089690
vt 0.361437 0.247987
vt 0.263804 0.043881
vt 0.335378 0.775591
vt 0.075984 0.648465
vt 0.313404 0.247848
vt 0.322794 0.195581
vt 0.390812 0.210780
vt 0.263797 0.089938
vt 0.289257 0.247778
vt 0.263789 0.258354
vt 0.237788 0.201928
vt 0.322785 0.129212
vt 0.376080 0.235417
vt 0.322794 0.043882
vt 0.335499 0.772901
vt 0.098688 0.610902
vt 0.337421 0.247917
vt 0.322789 0.182158
vt 0.390764 0.216814
vt 0.322784 0.148973
vt 0.383402 0.229132
vt 0.263789 0.281594
vt 0.237788 0.191481
vt 0.263790 0.173685
vt 0.251580 0.235265
vt 0.263800 0.066909
vt 0.301331 0.247813
vt 0.322857 0.108743
vt 0.390441 0.160186
vt 0.390448 0.202758
vt 0.322909 0.175534
vt 0.390655 0.211048
vt 0.318095 0.022574
vt 0.293246 0.395869
vt 0.138499 0.182938
vt 0.293245 0.472244
vt 0.235884 0.630404
vt 0.352431 0.070731
vt 0.135673 0.515551
vt 0.940609 0.352166
vt 0.352440 0.149775
vt 0.137108 0.349245
vt 0.293256 0.563861
vt 0.291181 0.641565
vt 0.275515 0.306345
vt 0.352440 0.043883
vt 0.311446 0.359806
vt 0.325850 0.375910
vt 0.245757 0.119922
vt 0.137812 0.265641
vt 0.293250 0.517804
vt 0.416507 0.022582
vt 0.293246 0.349388
vt 0.233208 0.189035
vt 0.242255 0.107081
vt 0.187069 0.572167
vt 0.352435 0.110253
vt 0.231257 0.465961
vt 0.223911 0.476086
vt 0.237936 0.266057
vt 0.229484 0.316192
vt 0.136399 0.432398
vt 0.903680 0.409836
vt 0.293262 0.609669
vt 0.263761 0.635152
vt 0.352435 0.057307
vt 0.234777 0.533490
vt 0.226128 0.530122
vt 0.374345 0.222746
vt 0.212414 0.600708
vt 0.352433 0.090492
vt 0.316448 0.563772
vt 0.315559 0.572427
vt 0.243025 0.253960
vt 0.287992 0.322308
vt 0.465713 0.022583
vt 0.293247 0.326147
vt 0.269437 0.564931
vt 0.269402 0.562687
vt 0.255964 0.050589
vt 0.293245 0.434057
vt 0.312829 0.068842
vt 0.364729 0.085022
vt 0.406707 0.066930
vt 0.439824 0.083658
vt 0.137462 0.307443
vt 0.293253 0.540832
vt 0.312237 0.367955
vt 0.245598 0.125294
vt 0.234596 0.366009
vt 0.226696 0.396139
vt 0.244454 0.181375
vt 0.314414 0.453300
vt 0.325969 0.474022
vt 0.277966 0.186541
vt 0.325911 0.643114
vt 0.277966 0.305386
vt 0.352368 0.043893
vt 0.263787 0.395869
vt 0.237788 0.140113
vt 0.263786 0.472244
vt 0.265371 0.115225
vt 0.381889 0.070729
vt 0.390724 0.140087
vt 0.976696 0.367462
vt 0.381898 0.149772
vt 0.361437 0.114948
vt 0.263798 0.563861
vt 0.313404 0.115087
vt 0.381898 0.043881
vt 0.390812 0.152155
vt 0.263792 0.517804
vt 0.289257 0.115156
vt 0.263788 0.349388
vt 0.237788 0.161007
vt 0.381894 0.110250
vt 0.376080 0.127517
vt 0.937916 0.431683
vt 0.263804 0.609669
vt 0.337420 0.115017
vt 0.381894 0.057305
vt 0.390764 0.146121
vt 0.381891 0.090490
vt 0.383402 0.133802
vt 0.263788 0.326147
vt 0.237788 0.171454
vt 0.263787 0.434056
vt 0.251580 0.127669
vt 0.263795 0.540832
vt 0.301331 0.115121
vt 0.322909 0.043881
vt 0.390655 0.151886
vt 0.914740 0.664235
vt 0.907348 0.525095
vt 0.086893 0.630801
vt 0.905105 0.721231
vt 0.093762 0.591361
vt 0.899403 0.578331
vt 0.902740 0.587069
vt 0.078976 0.629864
vt 0.336352 0.771604
vt 0.101681 0.592297
vt 0.336473 0.768914
vt 0.908597 0.524347
vt 0.086911 0.630682
vt 0.908597 0.579486
vt 0.920166 0.586884
vt 0.088916 0.618233
vt 0.078994 0.629746
vt 0.336415 0.771608
vt 0.337008 0.768931
vt 0.080998 0.617296
vt 0.895506 0.725676
vt 0.896209 0.724149
vt 0.096600 0.573715
vt 0.104520 0.574651
vt 0.336488 0.765054
vt 0.912996 0.725697
vt 0.914488 0.723955
vt 0.091754 0.600591
vt 0.337022 0.765071
vt 0.083836 0.599655
vt 0.808910 0.891960
vt 0.806298 0.892316
vt 0.099979 0.551139
vt 0.108396 0.552134
vt 0.333789 0.760486
vt 0.820987 0.903529
vt 0.819826 0.904559
vt 0.095871 0.576569
vt 0.334175 0.760187
vt 0.087456 0.575574
vt 0.710541 0.955686
vt 0.709430 0.955709
vt 0.102083 0.538054
vt 0.110501 0.539049
vt 0.330738 0.758653
vt 0.705679 0.977852
vt 0.705161 0.978589
vt 0.098379 0.560983
vt 0.330564 0.757981
vt 0.089964 0.559988
vt 0.607526 0.948285
vt 0.103945 0.526483
vt 0.551604 0.866104
vt 0.112362 0.527479
vt 0.327309 0.758746
vt 0.597404 0.957343
vt 0.100376 0.548567
vt 0.567276 0.853745
vt 0.326959 0.758485
vt 0.091961 0.547572
vt 0.592441 0.957300
vt 0.565283 0.852996
vt 0.105840 0.514700
vt 0.326034 0.761122
vt 0.114258 0.515695
vt 0.608715 0.945456
vt 0.102271 0.536787
vt 0.549675 0.865594
vt 0.325685 0.760861
vt 0.093856 0.535792
vt 0.475231 0.778732
vt 0.475987 0.779559
vt 0.108009 0.501221
vt 0.116426 0.502216
vt 0.323151 0.763111
vt 0.464087 0.795429
vt 0.464859 0.795076
vt 0.104346 0.523888
vt 0.322805 0.762666
vt 0.095931 0.522892
vt 0.256626 0.745679
vt 0.254102 0.744813
vt 0.111668 0.478476
vt 0.316480 0.763761
vt 0.120085 0.479471
vt 0.257154 0.768982
vt 0.107824 0.502269
vt 0.255717 0.769276
vt 0.316456 0.763254
vt 0.099409 0.501274
vt 0.137791 0.689763
vt 0.135794 0.687995
vt 0.114052 0.463656
vt 0.122469 0.464651
vt 0.312589 0.765200
vt 0.110559 0.485268
vt 0.116913 0.699940
vt 0.115382 0.698991
vt 0.102144 0.484273
vt 0.312003 0.764922
vt 0.097750 0.637991
vt 0.099946 0.639222
vt 0.115273 0.456064
vt 0.123690 0.457059
vt 0.311253 0.766511
vt 0.065972 0.639642
vt 0.065423 0.641170
vt 0.112039 0.476067
vt 0.310280 0.766451
vt 0.103624 0.475072
vt 0.133271 0.494680
vt 0.258190 0.567419
vt 0.117536 0.441998
vt 0.258190 0.567419
vt 0.125953 0.442993
vt 0.312029 0.769550
vt 0.129714 0.348353
vt 0.258190 0.567419
vt 0.117294 0.441969
vt 0.258190 0.567419
vt 0.311971 0.773836
vt 0.109338 0.441029
s 0
usemtl Материал
f 27/59/1 26/56/1 4/7/1 12/27/1
f 18/42/2 16/35/2 6/11/2 13/29/2
f 31/67/3 29/62/3 7/13/3 14/32/3
f 12/27/4 4/7/4 10/23/4 15/34/4
f 19/43/5 12/28/5 15/33/5 22/49/5
f 32/69/5 31/66/5 14/31/5 21/46/5
f 24/53/6 18/42/6 13/29/6 20/44/6
f 28/60/7 27/58/7 12/28/7 19/43/7
f 21/46/8 14/31/8 18/41/8 24/52/8
f 14/32/9 7/13/9 16/35/9 18/42/9
f 8/17/10 21/47/10 24/53/10 17/39/10
f 25/54/7 28/60/7 19/43/7 3/5/7
f 17/39/11 24/53/11 20/44/11 5/9/11
f 30/65/12 32/68/12 21/48/12 8/18/12
f 3/5/5 19/43/5 22/49/5 9/20/5
f 1/1/13 23/50/13 28/61/13 25/55/13
f 23/50/14 11/25/14 27/59/14 28/61/14
f 11/25/15 2/3/15 26/56/15 27/59/15
f 9/20/16 22/49/16 32/69/16 30/64/16
f 22/49/5 15/33/5 31/66/5 32/69/5
f 15/34/17 10/23/17 29/62/17 31/67/17
f 3/6/18 9/21/18 34/71/18 33/70/18
f 33/70/19 34/71/19 36/75/19 35/73/19
f 30/65/20 8/18/20 36/76/20 34/72/20 9/22/20
f 35/74/21 36/77/21 54/117/21 53/114/21
f 10/24/22 4/8/22 39/82/22 44/94/22
f 5/10/23 20/45/23 49/106/23 40/84/23
f 6/12/22 16/36/22 47/100/22 41/86/22
f 11/26/24 23/51/24 50/108/24 45/96/24
f 20/45/23 13/30/23 46/98/23 49/106/23
f 7/14/22 29/63/22 52/112/22 42/88/22
f 42/89/25 47/101/25 105/229/25 104/227/25
f 13/30/23 6/12/23 41/86/23 46/98/23
f 29/63/22 10/24/22 44/94/22 52/112/22
f 8/19/26 17/40/26 48/104/26 43/92/26
f 17/40/26 5/10/26 40/84/26 48/104/26
f 2/4/24 11/26/24 45/96/24 38/80/24
f 23/51/24 1/2/24 37/78/24 50/108/24
f 26/57/27 2/4/27 38/80/27 51/110/27
f 4/8/27 26/57/27 51/110/27 39/82/27
f 78/169/28 64/140/28 56/121/28 77/166/28
f 70/154/29 65/142/29 58/125/29 68/148/29
f 82/177/30 66/145/30 59/128/30 80/172/30
f 64/140/31 67/147/31 62/136/31 56/121/31
f 71/155/16 74/161/16 67/146/16 64/141/16
f 83/179/16 73/158/16 66/144/16 82/176/16
f 76/165/32 72/156/32 65/142/32 70/154/32
f 79/170/7 71/155/7 64/141/7 78/168/7
f 73/158/33 76/164/33 70/153/33 66/144/33
f 66/145/34 70/154/34 68/148/34 59/128/34
f 60/130/35 69/151/35 76/165/35 73/159/35
f 25/54/7 3/5/7 71/155/7 79/170/7
f 69/151/36 57/123/36 72/156/36 76/165/36
f 81/175/37 60/131/37 73/160/37 83/178/37
f 3/5/16 61/133/16 74/161/16 71/155/16
f 1/1/38 25/55/38 79/171/38 75/162/38
f 75/162/39 79/171/39 78/169/39 63/138/39
f 63/138/40 78/169/40 77/166/40 55/119/40
f 61/133/5 81/174/5 83/179/5 74/161/5
f 74/161/16 83/179/16 82/176/16 67/146/16
f 67/147/41 82/177/41 80/172/41 62/136/41
f 3/6/42 33/70/42 84/180/42 61/134/42
f 33/70/43 35/73/43 85/182/43 84/180/43
f 81/175/44 61/135/44 84/181/44 85/183/44 60/131/44
f 35/74/45 53/114/45 101/217/45 85/184/45
f 62/137/46 92/198/46 87/187/46 56/122/46
f 57/124/47 88/189/47 97/209/47 72/157/47
f 58/126/46 89/191/46 95/204/46 68/149/46
f 63/139/24 93/200/24 98/211/24 75/163/24
f 72/157/47 97/209/47 94/202/47 65/143/47
f 59/129/46 90/194/46 100/215/46 80/173/46
f 68/150/46 95/205/46 90/194/46 59/129/46
f 65/143/47 94/202/47 89/192/47 58/127/47
f 80/173/46 100/215/46 92/198/46 62/137/46
f 60/132/48 91/196/48 96/207/48 69/152/48
f 69/152/48 96/207/48 88/189/48 57/124/48
f 55/120/24 86/185/24 93/200/24 63/139/24
f 75/163/24 98/211/24 37/78/24 1/2/24
f 77/167/49 99/213/49 86/185/49 55/120/49
f 56/122/49 87/187/49 99/213/49 77/167/49
f 105/228/50 103/223/50 110/241/50 111/242/50
f 16/37/51 7/15/51 102/219/51 103/222/51
f 7/16/52 42/90/52 104/226/52 102/221/52
f 47/102/53 16/38/53 103/223/53 105/228/53
f 107/234/54 106/231/54 108/235/54 109/238/54
f 103/224/55 102/220/55 106/230/55 107/232/55
f 102/221/56 104/226/56 108/235/56 106/231/56
f 104/227/57 105/229/57 109/237/57 108/236/57
f 110/239/58 112/244/58 116/254/58 114/249/58
f 109/237/59 105/229/59 111/243/59 113/247/59
f 103/225/7 107/233/7 112/245/7 110/240/7
f 107/234/60 109/238/60 113/248/60 112/246/60
f 114/250/7 116/255/7 120/264/7 118/259/7
f 111/242/61 110/241/61 114/251/61 115/252/61
f 113/247/62 111/243/62 115/253/62 117/257/62
f 112/246/63 113/248/63 117/258/63 116/256/63
f 118/260/7 120/265/7 124/274/7 122/269/7
f 115/252/64 114/251/64 118/261/64 119/262/64
f 117/257/59 115/253/59 119/263/59 121/267/59
f 116/256/65 117/258/65 121/268/65 120/266/65
f 123/272/66 122/270/66 126/281/66 127/283/66
f 119/262/67 118/261/67 122/270/67 123/272/67
f 121/267/59 119/263/59 123/273/59 125/277/59
f 120/266/68 121/268/68 125/278/68 124/275/68
f 129/287/59 127/282/59 131/293/59 133/297/59
f 125/277/59 123/273/59 127/282/59 129/287/59
f 124/275/69 125/278/69 129/288/69 128/285/69
f 122/271/7 124/276/7 128/284/7 126/279/7
f 130/289/7 132/294/7 136/304/7 134/299/7
f 128/285/70 129/288/70 133/298/70 132/296/70
f 126/280/7 128/286/7 132/295/7 130/290/7
f 127/283/71 126/281/71 130/291/71 131/292/71
f 137/307/59 135/302/59 139/313/59 141/318/59
f 131/292/72 130/291/72 134/301/72 135/303/72
f 133/297/59 131/293/59 135/302/59 137/307/59
f 132/296/73 133/298/73 137/308/73 136/305/73
f 140/314/74 141/317/74 145/328/74 144/326/74
f 136/305/75 137/308/75 141/317/75 140/314/75
f 134/300/7 136/306/7 140/315/7 138/309/7
f 135/303/76 134/301/76 138/311/76 139/312/76
f 142/319/77 144/324/77 148/335/77 146/329/77
f 138/310/7 140/316/7 144/325/7 142/320/7
f 139/312/78 138/311/78 142/321/78 143/322/78
f 141/318/59 139/313/59 143/323/59 145/327/59
f 147/332/79 146/330/79 148/336/79 149/338/79
f 143/322/80 142/321/80 146/331/80 147/333/80
f 145/327/81 143/323/81 147/334/81 149/339/81
f 144/326/82 145/328/82 149/340/82 148/337/82
f 45/97/83 50/109/83 37/79/83 54/118/83 53/116/83 43/93/83 48/105/83 40/85/83 49/107/83 46/99/83 41/87/83 47/103/83 42/91/83 52/113/83 44/95/83 39/83/83 51/111/83 38/81/83
f 93/201/84 86/186/84 99/214/84 87/188/84 92/199/84 100/216/84 90/195/84 95/206/84 89/193/84 94/203/84 97/210/84 88/190/84 96/208/84 91/197/84 53/115/84 101/218/84 37/79/84 98/212/84
f 43/93/19 53/116/19 37/79/19 54/118/19
f 91/197/43 101/218/43 37/79/43 53/116/43
